<svg width="16" height="16" viewBox="0 0 16 16" fill="none" xmlns="http://www.w3.org/2000/svg">
<path d="M15.5 7.58336C15.5029 8.68325 15.2459 9.76826 14.75 10.75C14.162 11.9265 13.2581 12.916 12.1395 13.6078C11.021 14.2995 9.73187 14.6662 8.41667 14.6667C7.31678 14.6696 6.23176 14.4126 5.25 13.9167L0.5 15.5L2.08333 10.75C1.58744 9.76826 1.33047 8.68325 1.33333 7.58336C1.33384 6.26815 1.70051 4.97907 2.39227 3.86048C3.08402 2.7419 4.07355 1.838 5.25 1.25002C6.23176 0.754133 7.31678 0.497156 8.41667 0.500024H8.83333C10.5703 0.59585 12.2109 1.32899 13.4409 2.55907C14.671 3.78915 15.4042 5.42973 15.5 7.16669V7.58336Z" stroke="#998329" stroke-linecap="round" stroke-linejoin="round"/>
</svg>
