<svg width="16" height="16" viewBox="0 0 16 16" fill="none" xmlns="http://www.w3.org/2000/svg">
<path d="M3.42823 10.2859H2.74252C2.3788 10.2859 2.02997 10.1414 1.77278 9.88418C1.51558 9.62698 1.37109 9.27816 1.37109 8.91443V2.74301C1.37109 2.37928 1.51558 2.03046 1.77278 1.77326C2.02997 1.51607 2.3788 1.37158 2.74252 1.37158H8.91394C9.27767 1.37158 9.6265 1.51607 9.88369 1.77326C10.1409 2.03046 10.2854 2.37928 10.2854 2.74301V3.42872M7.54252 6.17158H13.7139C14.4714 6.17158 15.0854 6.78559 15.0854 7.543V13.7144C15.0854 14.4718 14.4714 15.0859 13.7139 15.0859H7.54252C6.7851 15.0859 6.17109 14.4718 6.17109 13.7144V7.543C6.17109 6.78559 6.7851 6.17158 7.54252 6.17158Z" stroke="#998329" stroke-linecap="round" stroke-linejoin="round"/>
</svg>
