<svg width="61" height="36" viewBox="0 0 61 36" fill="none" xmlns="http://www.w3.org/2000/svg">
<path fill-rule="evenodd" clip-rule="evenodd" d="M26.0991 36C29.3326 36 32.2995 35.1892 35 33.5676C37.2687 32.2052 39.1487 30.4487 40.64 28.2978V36H44.3176V23.0811H44.6374L56.0965 36H61L49.5408 23.0811H49.7007C51.7616 23.0811 53.6448 22.5766 55.3504 21.5676C57.0915 20.5225 58.4594 19.1351 59.4543 17.4054C60.4848 15.6396 61 13.7117 61 11.6216C61 9.53153 60.4848 7.6036 59.4543 5.83784C58.4594 4.07207 57.0915 2.68468 55.3504 1.67567C53.6448 0.630629 51.7616 0.108107 49.7007 0.108107H40.64V7.70227C39.1487 5.55141 37.2687 3.79481 35 2.43243C32.2995 0.81081 29.3326 0 26.0991 0H17.145V3.57872C16.4364 2.83999 15.6248 2.20564 14.7104 1.67567C13.0048 0.630629 11.1216 0.108107 9.06073 0.108107H0V36H3.67759V23.0811H3.99738L15.4565 36H26.0991ZM26.0991 32.3243C28.6575 32.3243 31.0203 31.6937 33.1878 30.4324C35.3553 29.1351 37.0608 27.3874 38.3045 25.1892C39.5836 22.991 40.2232 20.5946 40.2232 18C40.2232 15.4054 39.5836 13.009 38.3045 10.8108C37.0608 8.61261 35.3553 6.88288 33.1878 5.62162C31.0203 4.32432 28.6575 3.67567 26.0991 3.67567H20.8226V32.3243H26.0991ZM3.67759 19.4054V3.78378H9.06073C10.4465 3.78378 11.7256 4.14414 12.8982 4.86486C14.0708 5.54955 14.9946 6.5045 15.6697 7.72973C16.3804 8.91892 16.7357 10.2162 16.7357 11.6216C16.7357 13.027 16.3804 14.3243 15.6697 15.5135C14.9946 16.7027 14.0708 17.6577 12.8982 18.3784C11.7256 19.0631 10.4465 19.4054 9.06073 19.4054H3.67759ZM14.7104 21.5676C13.0048 22.5766 11.1216 23.0811 9.06073 23.0811H8.90083L17.145 32.3755V19.6376C16.4364 20.3753 15.6248 21.0187 14.7104 21.5676ZM44.3176 19.4054V3.78378H49.7007C51.0865 3.78378 52.3657 4.14414 53.5382 4.86486C54.7108 5.54955 55.6346 6.5045 56.3097 7.72973C57.0204 8.91892 57.3757 10.2162 57.3757 11.6216C57.3757 13.027 57.0204 14.3243 56.3097 15.5135C55.6346 16.7027 54.7108 17.6577 53.5382 18.3784C52.3657 19.0631 51.0865 19.4054 49.7007 19.4054H44.3176Z" fill="black"/>
</svg>
