<svg width="252" height="187" viewBox="0 0 252 187" fill="none" xmlns="http://www.w3.org/2000/svg">
<path d="M150.444 151.1C153.857 151.1 156.619 152.039 158.73 153.916C160.525 155.616 161.652 157.83 162.109 160.558H159.628C159.417 159.247 158.977 158.114 158.309 157.157C156.655 154.749 154.051 153.544 150.497 153.544C147.471 153.544 145.272 154.235 143.899 155.616C142.633 156.927 141.999 158.681 141.999 160.877C141.999 163.357 142.826 165.163 144.479 166.297C145.641 167.076 147.418 167.572 149.811 167.784C151.957 167.961 153.734 168.245 155.142 168.635C156.549 168.989 157.745 169.467 158.73 170.069C161.158 171.592 162.373 173.948 162.373 177.136C162.373 178.376 162.109 179.563 161.581 180.696C161.088 181.83 160.385 182.839 159.47 183.725C157.288 185.815 154.332 186.859 150.603 186.859C146.802 186.859 143.829 185.833 141.683 183.778C139.958 182.255 138.867 180.236 138.409 177.721H140.891C141.278 179.421 141.999 180.785 143.055 181.812C144.11 182.84 145.377 183.565 146.854 183.99C148.016 184.309 149.195 184.469 150.392 184.469C152.01 184.469 153.523 184.221 154.931 183.725C157.007 182.981 158.467 181.723 159.312 179.952C159.699 179.067 159.893 178.128 159.893 177.136C159.892 174.975 159.206 173.399 157.834 172.407C156.286 171.274 153.541 170.53 149.6 170.176C142.879 169.644 139.519 166.545 139.519 160.877C139.519 159.495 139.747 158.202 140.204 156.998C140.697 155.794 141.365 154.766 142.21 153.916C144.145 152.039 146.89 151.1 150.444 151.1Z" fill="#403F39"/>
<path d="M240.071 151.1C243.484 151.1 246.247 152.039 248.358 153.916C250.153 155.616 251.279 157.83 251.736 160.558H249.255C249.044 159.247 248.604 158.114 247.936 157.157C246.282 154.749 243.678 153.544 240.124 153.544C237.098 153.544 234.899 154.235 233.526 155.616C232.26 156.927 231.626 158.681 231.626 160.877C231.626 163.356 232.453 165.163 234.106 166.297C235.268 167.076 237.045 167.572 239.438 167.784C241.584 167.961 243.361 168.245 244.769 168.635C246.176 168.989 247.373 169.467 248.358 170.069C250.786 171.592 252 173.948 252 177.136C252 178.376 251.736 179.563 251.208 180.696C250.715 181.83 250.012 182.839 249.097 183.725C246.915 185.815 243.959 186.859 240.229 186.859C236.429 186.859 233.456 185.833 231.31 183.778C229.585 182.255 228.495 180.236 228.037 177.721H230.518C230.905 179.421 231.626 180.785 232.682 181.812C233.737 182.84 235.005 183.565 236.482 183.99C237.644 184.309 238.822 184.469 240.019 184.469C241.637 184.469 243.15 184.221 244.558 183.725C246.634 182.981 248.094 181.723 248.938 179.952C249.326 179.067 249.52 178.128 249.52 177.136C249.519 174.975 248.833 173.399 247.461 172.407C245.913 171.274 243.168 170.53 239.227 170.176C232.506 169.644 229.146 166.545 229.146 160.877C229.146 159.496 229.374 158.202 229.831 156.998C230.324 155.794 230.992 154.766 231.837 153.916C233.772 152.039 236.517 151.1 240.071 151.1Z" fill="#403F39"/>
<path d="M17.8408 151.047C20.3741 151.047 22.7667 151.543 25.0186 152.534C27.2706 153.491 29.2416 154.908 30.9307 156.785L29.083 158.326C27.6051 156.768 25.8982 155.581 23.9629 154.767C22.0277 153.917 19.9871 153.491 17.8408 153.491C15.7647 153.491 13.7761 153.898 11.876 154.713C10.011 155.492 8.37528 156.591 6.96777 158.008C5.52505 159.425 4.3982 161.072 3.58887 162.949C2.81478 164.827 2.42773 166.81 2.42773 168.9C2.42775 170.99 2.81474 172.974 3.58887 174.852C4.3982 176.729 5.52507 178.376 6.96777 179.793C8.37525 181.21 10.0111 182.326 11.876 183.141C13.7761 183.92 15.7647 184.31 17.8408 184.31C19.9871 184.31 22.0277 183.902 23.9629 183.087C25.8982 182.237 27.6051 181.032 29.083 179.474L30.8779 181.015C29.1889 182.857 27.2179 184.274 24.9658 185.266C22.7139 186.257 20.339 186.754 17.8408 186.754C15.4128 186.754 13.1075 186.293 10.9258 185.372C8.77937 184.451 6.87939 183.158 5.22559 181.493C3.57174 179.864 2.28697 177.968 1.37207 175.808C0.457262 173.611 1.98005e-05 171.309 0 168.9C0 166.492 0.457219 164.207 1.37207 162.046C2.28697 159.85 3.57174 157.919 5.22559 156.254C6.87932 154.625 8.79704 153.35 10.9785 152.429C13.1602 151.508 15.448 151.047 17.8408 151.047Z" fill="#403F39"/>
<path fill-rule="evenodd" clip-rule="evenodd" d="M118.338 186.594H115.752L111.002 172.991H97.1729L92.3164 186.594H89.7305L102.134 151.312H105.935L118.338 186.594ZM97.8584 170.813L110.21 170.866L104.034 153.278L97.8584 170.813Z" fill="#403F39"/>
<path d="M56.6895 184.15H67.0342V186.541H54.1553V151.206H56.6895V184.15Z" fill="#403F39"/>
<path d="M204.819 153.598H188.034V167.731H199.33V170.069H188.034V184.15H204.819V186.541H185.606V151.206H204.819V153.598Z" fill="#403F39"/>
<path fill-rule="evenodd" clip-rule="evenodd" d="M72.9424 133.664L36.0889 92.4238H38.9756C47.2069 92.4238 54.7087 90.4264 61.502 86.4385C65.1585 84.2599 68.3981 81.7101 71.2236 78.79L72.9424 77.0146V133.664ZM70.9424 81.8672C68.4159 84.2228 65.6094 86.3189 62.5254 88.1562L62.5205 88.1602C55.8393 92.0836 48.5051 94.1606 40.5361 94.3994L70.9424 128.425V81.8672Z" fill="#403F39"/>
<path fill-rule="evenodd" clip-rule="evenodd" d="M108.455 13.8779C119.064 13.8779 128.877 16.5503 137.872 21.8945C146.857 27.0863 153.933 34.21 159.089 43.2529L159.578 44.1035C164.559 52.9241 167.05 62.5146 167.05 72.8574C167.05 83.5296 164.397 93.4003 159.094 102.451C153.936 111.5 146.859 118.7 137.872 124.039L137.861 124.045C128.867 129.24 119.059 131.837 108.455 131.837H85.9385V13.8779H108.455ZM87.9385 129.837H108.455C118.712 129.837 128.17 127.331 136.851 122.319C145.541 117.156 152.372 110.208 157.357 101.462L157.363 101.451C162.488 92.71 165.05 83.185 165.05 72.8574C165.05 62.5298 162.488 53.0049 157.363 44.2637L157.356 44.2539L157.357 44.2529C152.374 35.5091 145.546 28.6362 136.861 23.6201L136.851 23.6143C128.169 18.4565 118.71 15.8779 108.455 15.8779H87.9385V129.837Z" fill="#403F39"/>
<path fill-rule="evenodd" clip-rule="evenodd" d="M38.9756 14.3154C44.8009 14.3154 50.1914 15.8201 55.126 18.8262L55.5859 19.0977C60.3005 21.9354 64.0352 25.8327 66.7832 30.7715L67.0586 31.2383C69.8675 36.082 71.2725 41.3553 71.2725 47.04C71.2725 52.9078 69.7759 58.3375 66.7832 63.3086L66.7822 63.3076C63.9456 68.2602 60.0631 72.2419 55.1455 75.2422L55.126 75.2539C50.1886 78.1156 44.7984 79.5459 38.9756 79.5459H16.0244V14.3154H38.9756ZM18.0244 77.5459H38.9756C44.4515 77.5459 49.4917 76.2055 54.1152 73.5273C58.7484 70.698 62.3916 66.9581 65.0576 62.2969L65.0693 62.2773C67.8722 57.6217 69.2725 52.5492 69.2725 47.04C69.2725 41.5308 67.8722 36.4584 65.0693 31.8027L65.0605 31.7881L65.0518 31.7725C62.3841 26.9669 58.7439 23.2349 54.123 20.5566L53.6689 20.2842C49.1653 17.6373 44.2734 16.3154 38.9756 16.3154H18.0244V77.5459Z" fill="#403F39"/>
<path fill-rule="evenodd" clip-rule="evenodd" d="M204.697 14.3154C210.522 14.3154 215.912 15.8203 220.847 18.8262C225.779 21.6848 229.667 25.6734 232.504 30.7715L232.78 31.2383C235.589 36.0819 236.994 41.3553 236.994 47.04C236.994 52.9002 235.5 58.3223 232.515 63.2881L232.516 63.2891C229.678 68.2505 225.79 72.238 220.866 75.2422L220.857 75.248L220.848 75.2539C215.91 78.1156 210.52 79.5459 204.697 79.5459H181.746V14.3154H204.697ZM183.746 77.5459H204.697C210.173 77.5459 215.213 76.2056 219.837 73.5273C224.47 70.698 228.113 66.9581 230.779 62.2969L230.791 62.2773C233.594 57.6217 234.994 52.5492 234.994 47.04C234.994 41.5309 233.594 36.4584 230.791 31.8027L230.781 31.7881L230.773 31.7725C228.106 26.9669 224.465 23.2349 219.845 20.5566L219.391 20.2842C214.887 17.6372 209.995 16.3154 204.697 16.3154H183.746V77.5459Z" fill="#403F39"/>
<path fill-rule="evenodd" clip-rule="evenodd" d="M108.455 0C121.64 5.41069e-06 133.739 3.28198 144.751 9.8457C154.002 15.3601 161.669 22.4699 167.75 31.1758V0.4375H204.697C213.101 0.4375 220.781 2.55233 227.735 6.78223C234.835 10.8663 240.414 16.4827 244.471 23.6299C248.672 30.7769 250.773 38.5803 250.773 47.04L250.768 47.8311C250.64 55.987 248.541 63.5273 244.471 70.4512C240.414 77.4524 234.835 83.0679 227.735 87.2979L227.081 87.6748C220.3 91.5075 212.838 93.4238 204.697 93.4238H204.045L250.773 145.715H230.778L184.05 93.4238H182.746V145.715H167.75V114.539C161.669 123.245 154.002 130.355 144.751 135.869L143.715 136.475C132.981 142.634 121.228 145.715 108.455 145.715H65.0566L18.3291 93.4238H17.0244V145.715H2.02832V0.4375H38.9756C47.3792 0.4375 55.0589 2.55242 62.0137 6.78223C65.7427 8.92733 69.0528 11.4952 71.9424 14.4854V0H108.455ZM73.9424 19.4326L70.5039 15.875C67.7489 13.0242 64.5889 10.5715 61.0166 8.5166L60.9951 8.50391L60.9746 8.49121C54.3435 4.45816 47.0252 2.4375 38.9756 2.4375H4.02832V143.715H15.0244V91.4238H19.2236L65.9521 143.715H108.455C121.291 143.715 133.034 140.525 143.727 134.151C152.738 128.78 160.194 121.864 166.11 113.394L169.75 108.184V143.715H180.746V91.4238H184.945L231.674 143.715H246.304L199.576 91.4238H204.697C212.756 91.4238 220.08 89.471 226.712 85.5791L227.346 85.1953C233.857 81.1832 238.979 75.939 242.74 69.4482L242.746 69.4375C246.764 62.6041 248.773 55.1512 248.773 47.04C248.773 38.9289 246.764 31.476 242.746 24.6426L242.738 24.6299L242.731 24.6172C238.85 17.7796 233.527 12.422 226.738 8.5166L226.717 8.50391L226.696 8.49121C220.065 4.45811 212.747 2.4375 204.697 2.4375H169.75V37.5322L166.11 32.3213C160.194 23.8511 152.738 16.9349 143.727 11.5635C133.034 5.18985 121.291 2.00001 108.455 2H73.9424V19.4326Z" fill="#403F39"/>
</svg>
