<svg width="580" height="430" viewBox="0 0 580 430" fill="none" xmlns="http://www.w3.org/2000/svg">
<path d="M345.865 347.372C353.712 347.372 360.062 349.531 364.916 353.847C369.042 357.756 371.63 362.846 372.682 369.116H366.979C366.493 366.103 365.482 363.497 363.945 361.298C360.143 355.76 354.157 352.991 345.986 352.991C339.029 352.991 333.973 354.58 330.818 357.756C327.906 360.769 326.449 364.8 326.449 369.849C326.449 375.549 328.351 379.703 332.153 382.309C334.823 384.1 338.908 385.24 344.408 385.729C349.343 386.136 353.428 386.788 356.664 387.684C359.9 388.498 362.651 389.597 364.916 390.981C370.498 394.483 373.289 399.899 373.289 407.229C373.289 410.079 372.682 412.807 371.469 415.413C370.336 418.019 368.718 420.34 366.614 422.376C361.599 427.18 354.803 429.583 346.229 429.583C337.492 429.583 330.656 427.221 325.722 422.498C321.758 418.996 319.25 414.354 318.198 408.572H323.901C324.791 412.481 326.45 415.616 328.877 417.978C331.304 420.339 334.216 422.009 337.613 422.986C340.283 423.719 342.993 424.086 345.743 424.086C349.464 424.086 352.943 423.516 356.179 422.376C360.952 420.666 364.309 417.774 366.251 413.702C367.141 411.666 367.586 409.509 367.586 407.229C367.586 402.261 366.008 398.637 362.854 396.356C359.294 393.75 352.983 392.04 343.923 391.226C328.472 390.004 320.746 382.878 320.746 369.849C320.746 366.673 321.273 363.7 322.324 360.932C323.457 358.163 324.993 355.801 326.935 353.847C331.384 349.531 337.695 347.372 345.865 347.372Z" fill="black"/>
<path d="M551.914 347.372C559.761 347.372 566.111 349.531 570.965 353.847C575.091 357.756 577.68 362.846 578.731 369.116H573.028C572.543 366.103 571.531 363.497 569.994 361.298C566.192 355.76 560.206 352.991 552.035 352.991C545.078 352.991 540.022 354.58 536.867 357.756C533.955 360.769 532.499 364.8 532.499 369.849C532.499 375.549 534.4 379.703 538.202 382.309C540.872 384.1 544.957 385.24 550.458 385.729C555.393 386.136 559.478 386.788 562.714 387.684C565.949 388.498 568.7 389.597 570.965 390.981C576.547 394.483 579.338 399.899 579.338 407.229C579.338 410.079 578.731 412.807 577.518 415.413C576.385 418.019 574.767 420.34 572.664 422.376C567.649 427.181 560.853 429.583 552.278 429.583C543.542 429.583 536.705 427.221 531.771 422.498C527.807 418.996 525.299 414.354 524.247 408.572H529.95C530.84 412.481 532.499 415.616 534.926 417.978C537.353 420.339 540.265 422.009 543.662 422.986C546.332 423.719 549.042 424.086 551.793 424.086C555.514 424.086 558.993 423.516 562.229 422.376C567.001 420.666 570.358 417.774 572.3 413.702C573.19 411.666 573.635 409.509 573.635 407.229C573.635 402.261 572.057 398.637 568.902 396.356C565.343 393.75 559.033 392.04 549.973 391.226C534.521 390.004 526.796 382.879 526.796 369.849C526.796 366.673 527.321 363.7 528.373 360.932C529.506 358.163 531.043 355.801 532.984 353.847C537.434 349.531 543.744 347.372 551.914 347.372Z" fill="black"/>
<path d="M41.0146 347.25C46.8391 347.25 52.3402 348.39 57.5176 350.67C62.6949 352.869 67.2254 356.126 71.1084 360.442L66.8613 363.985C63.4637 360.402 59.54 357.674 55.0908 355.801C50.6415 353.846 45.9493 352.869 41.0146 352.869C36.2418 352.869 31.6711 353.806 27.3027 355.679C23.0153 357.47 19.2534 359.995 16.0176 363.252C12.7008 366.509 10.1116 370.297 8.25098 374.613C6.47145 378.929 5.58207 383.489 5.58203 388.294C5.58203 393.099 6.47131 397.659 8.25098 401.976C10.1116 406.292 12.7008 410.078 16.0176 413.336C19.2534 416.593 23.0152 419.159 27.3027 421.032C31.6711 422.824 36.2419 423.72 41.0146 423.72C45.9493 423.72 50.6415 422.783 55.0908 420.91C59.5401 418.956 63.4637 416.187 66.8613 412.604L70.9863 416.146C67.1034 420.38 62.5737 423.638 57.3965 425.918C52.2191 428.198 46.7583 429.339 41.0146 429.339C35.4328 429.339 30.1337 428.279 25.1182 426.162C20.1836 424.045 15.8148 421.073 12.0127 417.245C8.21076 413.499 5.25854 409.142 3.15527 404.175C1.05196 399.126 0 393.832 0 388.294C3.47726e-05 382.756 1.052 377.504 3.15527 372.536C5.2585 367.487 8.21081 363.049 12.0127 359.222C15.8148 355.476 20.2238 352.543 25.2393 350.426C30.2548 348.308 35.5137 347.25 41.0146 347.25Z" fill="black"/>
<path fill-rule="evenodd" clip-rule="evenodd" d="M272.055 428.972H266.109L255.188 397.7H223.396L212.232 428.972H206.286L234.802 347.86H243.539L272.055 428.972ZM224.974 392.691L253.368 392.814L239.171 352.381L224.974 392.691Z" fill="black"/>
<path d="M130.326 423.353H154.109V428.85H124.502V347.616H130.326V423.353Z" fill="black"/>
<path d="M470.872 353.113H432.284V385.606H458.252V390.981H432.284V423.353H470.872V428.85H426.702V347.616H470.872V353.113Z" fill="black"/>
<path fill-rule="evenodd" clip-rule="evenodd" d="M249.32 0C279.633 0 307.447 7.54509 332.763 22.6348C354.031 35.3122 371.657 51.6583 385.637 71.6729V1.00586H470.578C489.898 1.00587 507.553 5.86826 523.542 15.5928C539.864 24.9819 552.688 37.8923 562.015 54.3232C571.675 70.7543 576.505 88.6945 576.505 108.144C576.505 127.593 571.675 145.533 562.015 161.964C552.688 178.059 539.864 190.97 523.542 200.694C507.553 210.084 489.898 214.778 470.578 214.778H469.079L576.505 334.993H530.537L423.111 214.778H420.113V334.993H385.637V263.321C371.657 283.336 354.031 299.681 332.763 312.358C307.447 327.448 279.633 334.993 249.32 334.993H149.55L42.124 214.778H39.126V334.993H4.65039V1.00586H89.5908C108.911 1.00586 126.566 5.86825 142.555 15.5928C151.128 20.5243 158.736 26.4276 165.379 33.3018V0H249.32ZM165.379 182.734C158.736 189.6 151.128 195.587 142.555 200.694C126.566 210.084 108.911 214.778 89.5908 214.778H88.0918L165.379 301.266V182.734ZM199.854 34.2031V300.79H249.32C273.304 300.79 295.455 294.921 315.774 283.185C336.094 271.113 352.084 254.85 363.742 234.395C375.734 213.94 381.729 191.64 381.729 167.497C381.729 143.354 375.734 121.054 363.742 100.599C352.084 80.1436 336.094 64.048 315.774 52.3115C295.455 40.2398 273.304 34.2031 249.32 34.2031H199.854ZM39.126 35.21V180.574H89.5908C102.582 180.574 114.574 177.389 125.566 171.018C136.559 164.311 145.22 155.425 151.549 144.359C158.211 133.294 161.542 121.221 161.542 108.144C161.542 95.0658 158.211 82.9936 151.549 71.9277C145.22 60.5266 136.559 51.6408 125.566 45.2695C114.574 38.563 102.582 35.21 89.5908 35.21H39.126ZM420.113 35.21V180.574H470.578C483.569 180.574 495.561 177.389 506.554 171.018C517.546 164.311 526.206 155.425 532.535 144.359C539.197 133.294 542.528 121.221 542.528 108.144C542.528 95.0658 539.197 82.9936 532.535 71.9277C526.206 60.5268 517.546 51.6407 506.554 45.2695C495.561 38.563 483.569 35.21 470.578 35.21H420.113Z" fill="black"/>
</svg>
