<svg width="16" height="15" viewBox="0 0 16 15" fill="none" xmlns="http://www.w3.org/2000/svg">
<path d="M8.04597 14.6124C7.06197 14.6124 6.13797 14.4264 5.27397 14.0544C4.40997 13.6944 3.64797 13.1904 2.98797 12.5424C2.33997 11.8824 1.82997 11.1204 1.45797 10.2564C1.09797 9.39245 0.917969 8.46845 0.917969 7.48445C0.917969 6.48845 1.09797 5.56445 1.45797 4.71245C1.82997 3.84845 2.33997 3.09245 2.98797 2.44445C3.64797 1.78445 4.40997 1.27444 5.27397 0.914445C6.13797 0.542445 7.06197 0.356445 8.04597 0.356445C9.04197 0.356445 9.96597 0.542445 10.818 0.914445C11.682 1.27444 12.438 1.78445 13.086 2.44445C13.746 3.09245 14.256 3.84845 14.616 4.71245C14.988 5.56445 15.174 6.48845 15.174 7.48445C15.174 8.46845 14.988 9.39245 14.616 10.2564C14.256 11.1204 13.746 11.8824 13.086 12.5424C12.438 13.1904 11.682 13.6944 10.818 14.0544C9.96597 14.4264 9.04197 14.6124 8.04597 14.6124ZM8.04597 13.8564C8.93397 13.8564 9.76197 13.6944 10.53 13.3704C11.298 13.0344 11.97 12.5784 12.546 12.0024C13.134 11.4144 13.59 10.7364 13.914 9.96845C14.25 9.20045 14.418 8.37245 14.418 7.48445C14.418 6.59645 14.25 5.76845 13.914 5.00045C13.59 4.23245 13.134 3.56045 12.546 2.98444C11.97 2.39645 11.298 1.94045 10.53 1.61645C9.76197 1.28045 8.93397 1.11245 8.04597 1.11245C7.15797 1.11245 6.32997 1.28045 5.56197 1.61645C4.79397 1.94045 4.11597 2.39645 3.52797 2.98444C2.95197 3.56045 2.49597 4.23245 2.15997 5.00045C1.83597 5.76845 1.67397 6.59645 1.67397 7.48445C1.67397 8.37245 1.83597 9.20045 2.15997 9.96845C2.49597 10.7364 2.95197 11.4144 3.52797 12.0024C4.11597 12.5784 4.79397 13.0344 5.56197 13.3704C6.32997 13.6944 7.15797 13.8564 8.04597 13.8564Z" fill="black"/>
<path d="M8.04597 13.8564C8.93397 13.8564 9.76197 13.6944 10.53 13.3704C11.298 13.0344 11.97 12.5784 12.546 12.0024C13.134 11.4144 13.59 10.7364 13.914 9.96845C14.25 9.20045 14.418 8.37245 14.418 7.48445C14.418 6.59645 14.25 5.76845 13.914 5.00045C13.59 4.23245 13.134 3.56045 12.546 2.98444C11.97 2.39645 11.298 1.94045 10.53 1.61645C9.76197 1.28045 8.93397 1.11245 8.04597 1.11245C7.15797 1.11245 6.32997 1.28045 5.56197 1.61645C4.79397 1.94045 4.11597 2.39645 3.52797 2.98444C2.95197 3.56045 2.49597 4.23245 2.15997 5.00045C1.83597 5.76845 1.67397 6.59645 1.67397 7.48445C1.67397 8.37245 1.83597 9.20045 2.15997 9.96845C2.49597 10.7364 2.95197 11.4144 3.52797 12.0024C4.11597 12.5784 4.79397 13.0344 5.56197 13.3704C6.32997 13.6944 7.15797 13.8564 8.04597 13.8564Z" fill="black"/>
</svg>
